<?xml version="1.0" standalone="no"?>
<!DOCTYPE svg PUBLIC "-//W3C//DTD SVG 20010904//EN"
 "http://www.w3.org/TR/2001/REC-SVG-20010904/DTD/svg10.dtd">
<svg version="1.0" xmlns="http://www.w3.org/2000/svg"
 width="334.000000pt" height="257.000000pt" viewBox="0 0 334.000000 257.000000"
 preserveAspectRatio="xMidYMid meet">

<g transform="translate(0.000000,257.000000) scale(0.100000,-0.100000)"
fill="#000000" stroke="none">
<path d="M1470 2501 c27 -36 22 -67 -21 -129 -42 -59 -52 -97 -35 -137 19 -44
37 -55 30 -17 -6 31 11 74 54 130 29 38 41 114 22 138 -8 8 -27 22 -43 30
l-29 15 22 -30z"/>
<path d="M1755 2485 c39 -77 3 -175 -107 -291 -114 -122 -131 -178 -71 -238
32 -32 50 -34 29 -4 -33 47 -13 93 89 198 90 94 107 126 113 216 4 71 4 72
-32 110 -34 37 -35 37 -21 9z"/>
<path d="M1587 2393 c-4 -21 -29 -74 -57 -117 -78 -124 -87 -181 -38 -233 26
-28 43 -30 28 -4 -16 31 -12 65 15 112 70 123 88 169 82 215 -7 62 -23 76 -30
27z"/>
<path d="M1908 2288 c22 -22 13 -75 -28 -152 -48 -90 -51 -110 -9 -70 86 82
113 234 41 234 -12 0 -13 -3 -4 -12z"/>
<path d="M1180 2215 c-20 -25 -8 -50 25 -50 24 0 31 5 33 24 6 37 -34 55 -58
26z"/>
<path d="M1802 2180 c-15 -32 -42 -64 -75 -90 -88 -70 -110 -128 -65 -170 23
-21 51 -29 30 -8 -28 28 -13 60 57 127 74 70 91 100 91 157 0 47 -11 42 -38
-16z"/>
<path d="M1122 2123 c2 -10 10 -18 18 -18 22 0 18 29 -3 33 -14 3 -18 -1 -15
-15z"/>
<path d="M1196 2079 c-17 -25 -12 -46 15 -54 22 -7 49 10 49 31 0 14 -27 44
-40 44 -5 0 -16 -10 -24 -21z"/>
<path d="M2187 2076 c-7 -17 18 -40 33 -31 5 3 10 15 10 26 0 23 -35 27 -43 5z"/>
<path d="M1997 2064 c-8 -8 1 -24 14 -24 5 0 9 7 9 15 0 15 -12 20 -23 9z"/>
<path d="M2125 2019 c-5 -13 -2 -27 8 -36 24 -24 59 -8 55 25 -4 36 -53 45
-63 11z"/>
<path d="M1107 2013 c-3 -5 -2 -15 3 -22 10 -17 43 -6 38 12 -6 15 -34 22 -41
10z"/>
<path d="M1770 2007 c-17 -9 -26 -22 -28 -45 -2 -17 1 -32 6 -32 6 0 8 9 5 20
-3 12 4 28 22 45 31 28 31 30 -5 12z"/>
<path d="M2057 2006 c-7 -18 -67 -36 -119 -36 -50 0 -144 -36 -163 -63 -17
-24 -20 -83 -5 -92 6 -3 10 4 10 18 0 43 62 79 155 92 73 9 124 34 131 62 7
27 0 42 -9 19z"/>
<path d="M1322 1985 c-45 -20 -90 -53 -102 -75 -7 -14 6 -10 59 17 60 31 77
35 141 35 40 -1 78 -6 86 -13 28 -23 29 3 1 27 -23 20 -39 24 -90 24 -34 -1
-77 -7 -95 -15z"/>
<path d="M2244 1975 c-4 -9 -2 -21 4 -27 15 -15 44 -1 40 19 -4 23 -36 29 -44
8z"/>
<path d="M1063 1954 c-7 -18 17 -38 31 -24 11 11 1 40 -14 40 -6 0 -13 -7 -17
-16z"/>
<path d="M1355 1911 c-66 -17 -116 -52 -147 -102 -33 -52 -37 -53 -98 -25 -16
7 -25 19 -25 35 0 26 8 32 70 58 48 20 26 29 -33 14 -43 -12 -87 -42 -102 -71
-8 -14 -5 -25 14 -47 13 -15 29 -53 35 -84 33 -159 152 -308 310 -388 109 -56
281 -75 427 -47 224 42 409 222 455 441 7 33 21 68 31 78 50 49 -8 104 -142
132 -109 23 -115 17 -16 -15 99 -32 121 -48 112 -78 -17 -52 -253 -92 -550
-92 -104 0 -117 2 -106 15 7 8 24 15 38 15 19 0 23 3 15 11 -17 17 -57 6 -68
-18 -9 -21 -17 -23 -77 -23 -38 0 -68 2 -68 5 0 3 37 24 82 45 85 41 133 49
184 30 31 -12 38 -8 30 17 -9 28 -43 44 -97 45 -64 0 -126 -30 -180 -90 -45
-48 -55 -51 -133 -35 l-30 5 28 15 c16 8 39 12 52 9 26 -7 31 3 12 22 -19 19
-62 14 -98 -13 -60 -44 -68 -27 -11 25 62 57 130 79 182 61 40 -14 39 -14 39
4 0 33 -79 60 -135 46z m-105 -217 c122 -20 386 -35 515 -28 127 6 325 30 375
44 57 16 63 14 56 -22 -14 -74 -74 -174 -145 -240 -117 -111 -241 -154 -416
-145 -161 9 -281 62 -386 170 -43 45 -105 160 -116 216 -6 31 -4 34 13 27 10
-4 57 -14 104 -22z"/>
<path d="M1949 1871 c-25 -10 -68 -33 -94 -51 -26 -18 -69 -41 -94 -50 l-45
-18 31 -6 c39 -9 100 7 180 46 78 38 143 47 177 24 14 -9 30 -16 36 -16 20 0
10 37 -18 63 -23 22 -37 27 -78 27 -27 -1 -70 -9 -95 -19z"/>
<path d="M1380 929 c0 -110 -2 -120 -17 -116 -89 24 -140 12 -199 -47 -72 -71
-93 -205 -53 -341 14 -50 64 -100 114 -114 48 -13 119 2 153 33 19 17 26 18
40 8 37 -27 81 -45 96 -39 8 3 22 21 32 38 14 28 14 36 3 53 -10 16 -14 88
-16 314 -2 344 1 332 -95 332 l-58 0 0 -121z m-19 -229 c17 -10 19 -22 19
-125 0 -106 -1 -115 -22 -129 -31 -22 -61 -20 -84 5 -27 30 -28 192 -1 232 19
29 53 35 88 17z"/>
<path d="M2552 718 c3 -358 4 -362 57 -390 27 -14 159 -14 174 1 5 5 5 29 2
55 -6 39 -11 46 -30 46 -53 0 -55 9 -55 306 0 261 -1 275 -20 294 -15 15 -33
20 -76 20 l-55 0 3 -332z"/>
<path d="M281 1009 c-73 -13 -116 -34 -156 -82 -91 -106 -110 -315 -43 -469
52 -120 214 -184 353 -138 160 52 231 230 184 464 -32 162 -169 253 -338 225z
m120 -129 c35 -19 60 -86 66 -179 11 -174 -35 -271 -129 -271 -90 0 -120 49
-126 205 -5 128 7 186 48 227 23 23 37 28 75 28 25 0 55 -5 66 -10z"/>
<path d="M1777 820 c-89 -28 -138 -105 -145 -226 -10 -191 64 -287 223 -287
88 0 185 33 185 64 0 36 -30 81 -48 74 -37 -14 -114 -24 -142 -18 -35 6 -60
36 -60 70 0 23 1 23 129 23 l130 0 7 46 c14 98 -16 180 -85 229 -33 23 -53 30
-104 32 -34 1 -75 -2 -90 -7z m117 -119 c9 -10 18 -31 19 -46 2 -27 1 -28 -60
-32 l-63 -5 0 29 c0 64 65 97 104 54z"/>
<path d="M2846 819 c-22 -5 -41 -11 -43 -13 -2 -1 24 -104 57 -227 64 -236 73
-254 131 -266 25 -5 26 -7 17 -35 -17 -47 -48 -62 -123 -56 -62 5 -64 5 -75
-22 -6 -15 -10 -40 -8 -56 4 -35 46 -48 135 -41 89 7 139 37 179 112 37 68
171 561 161 589 -6 14 -19 16 -74 14 l-68 -3 -41 -180 c-22 -99 -43 -187 -45
-195 -3 -8 -15 37 -28 100 -12 63 -26 129 -31 145 -5 17 -14 49 -20 73 -9 35
-18 46 -45 58 -19 8 -36 14 -37 13 -2 -1 -21 -5 -42 -10z"/>
<path d="M733 808 c-26 -31 -32 -65 -15 -82 15 -14 17 -45 20 -211 l3 -194 35
-7 c19 -3 54 -3 79 0 l45 7 0 159 0 159 28 21 c21 17 36 21 65 17 36 -5 40 -3
52 26 7 18 16 51 20 75 l7 42 -54 0 c-57 0 -109 -24 -128 -59 -10 -19 -12 -19
-43 15 -36 39 -95 56 -114 32z"/>
<path d="M2144 787 c-15 -31 -15 -36 0 -65 13 -25 16 -66 16 -215 0 -183 0
-185 23 -191 28 -7 86 -7 115 0 22 6 22 9 22 164 l0 159 27 21 c19 15 38 20
66 18 34 -2 41 1 53 24 8 15 17 48 21 73 l6 45 -54 0 c-51 0 -119 -27 -119
-47 0 -5 -4 -14 -9 -21 -6 -10 -18 -2 -48 28 -54 53 -96 56 -119 7z"/>
</g>
</svg>
